<?xml version="1.0" encoding="utf-8"?>
<!-- Generator: Adobe Illustrator 22.1.0, SVG Export Plug-In . SVG Version: 6.00 Build 0)  -->
<svg version="1.1" id="Layer_1" xmlns="http://www.w3.org/2000/svg" xmlns:xlink="http://www.w3.org/1999/xlink" x="0px" y="0px"
	 viewBox="0 0 512 512" style="enable-background:new 0 0 512 512;" xml:space="preserve">
<g>
	<path d="M476.9,392.5L476.9,392.5L340.4,256l136.5-136.5l0,0c1.5-1.5,2.5-3.2,3.2-5c1.9-5,0.8-10.9-3.2-14.9l-64.5-64.5
		c-4-4-9.9-5.1-14.9-3.2c-1.8,0.7-3.5,1.7-5,3.2l0,0L256,171.6L119.5,35.1l0,0c-1.5-1.5-3.2-2.5-5-3.2c-5-1.9-10.9-0.8-14.9,3.2
		L35.1,99.6c-4,4-5.1,9.9-3.2,14.9c0.7,1.8,1.7,3.5,3.2,5l0,0L171.6,256L35.1,392.5l0,0c-1.5,1.5-2.5,3.2-3.2,5
		c-1.9,5-0.8,10.9,3.2,14.9l64.5,64.5c4,4,9.9,5.1,14.9,3.2c1.8-0.7,3.5-1.7,5-3.2l0,0L256,340.4l136.5,136.5l0,0
		c1.5,1.5,3.2,2.5,5,3.2c5,1.9,10.9,0.8,14.9-3.2l64.5-64.5c4-4,5.1-9.9,3.2-14.9C479.4,395.7,478.4,394,476.9,392.5z"/>
</g>
</svg>
